{
  "accessors": [
    {
      "bufferView": 2,
      "componentType": 5126,
      "count": 5069,
      "max": [
        0.3499148488044739,
        0.6563918590545654,
        0.0085626021027565
      ],
      "min": [
        -0.5025748014450073,
        -0.5306064486503601,
        -1.5343660116195679
      ],
      "type": "VEC3"
    },
    {
      "bufferView": 2,
      "byteOffset": 60828,
      "componentType": 5126,
      "count": 5069,
      "max": [
        0.9990445375442505,
        0.9999210834503174,
        0.9993113279342651
      ],
      "min": [
        -0.9991051554679871,
        -0.9997240304946899,
        -0.9998766183853149
      ],
      "type": "VEC3"
    },
    {
      "bufferView": 1,
      "componentType": 5126,
      "count": 5069,
      "max": [
        1.0,
        1.0
      ],
      "min": [
        0.0,
        0.0257415771484375
      ],
      "type": "VEC2"
    },
    {
      "bufferView": 0,
      "componentType": 5125,
      "count": 21288,
      "type": "SCALAR"
    },
    {
      "bufferView": 2,
      "byteOffset": 121656,
      "componentType": 5126,
      "count": 2368,
      "max": [
        0.19217638671398163,
        0.3344246447086334,
        -1.4951354265213013
      ],
      "min": [
        -0.3494287133216858,
        -0.07807426154613495,
        -1.8538044691085815
      ],
      "type": "VEC3"
    },
    {
      "bufferView": 2,
      "byteOffset": 150072,
      "componentType": 5126,
      "count": 2368,
      "max": [
        0.9958873391151428,
        0.9988776445388794,
        0.9997583031654358
      ],
      "min": [
        -0.9958867430686951,
        -0.9988778233528137,
        -0.999757707118988
      ],
      "type": "VEC3"
    },
    {
      "bufferView": 1,
      "byteOffset": 40552,
      "componentType": 5126,
      "count": 2368,
      "max": [
        1.0,
        1.0
      ],
      "min": [
        0.0,
        0.0
      ],
      "type": "VEC2"
    },
    {
      "bufferView": 0,
      "byteOffset": 85152,
      "componentType": 5125,
      "count": 11064,
      "type": "SCALAR"
    },
    {
      "bufferView": 2,
      "byteOffset": 178488,
      "componentType": 5126,
      "count": 9093,
      "max": [
        0.3137083947658539,
        0.38495001196861267,
        1.9659100770950317
      ],
      "min": [
        -0.3178723156452179,
        -1.0069584846496582,
        -5.329289436340332
      ],
      "type": "VEC3"
    },
    {
      "bufferView": 2,
      "byteOffset": 287604,
      "componentType": 5126,
      "count": 9093,
      "max": [
        0.9999985098838806,
        0.9999907612800598,
        0.9995428919792175
      ],
      "min": [
        -0.9999868869781494,
        -1.0,
        -0.9998515844345093
      ],
      "type": "VEC3"
    },
    {
      "bufferView": 1,
      "byteOffset": 59496,
      "componentType": 5126,
      "count": 9093,
      "max": [
        1.0007481575012207,
        1.0
      ],
      "min": [
        0.0,
        0.004913508892059326
      ],
      "type": "VEC2"
    },
    {
      "bufferView": 0,
      "byteOffset": 129408,
      "componentType": 5125,
      "count": 29724,
      "type": "SCALAR"
    }
  ],
  "asset": {
    "extras": {
      "author": "juicyjames (https://sketchfab.com/juicyjames)",
      "license": "CC-BY-4.0 (http://creativecommons.org/licenses/by/4.0/)",
      "source": "https://sketchfab.com/3d-models/pingu-with-a-shotgun-c73208fe725448ce914380f276d74562",
      "title": "Pingu with a shotgun"
    },
    "generator": "Sketchfab-13.51.0",
    "version": "2.0"
  },
  "bufferViews": [
    {
      "buffer": 0,
      "byteLength": 248304,
      "name": "floatBufferViews",
      "target": 34963
    },
    {
      "buffer": 0,
      "byteLength": 132240,
      "byteOffset": 248304,
      "byteStride": 8,
      "name": "floatBufferViews",
      "target": 34962
    },
    {
      "buffer": 0,
      "byteLength": 396720,
      "byteOffset": 380544,
      "byteStride": 12,
      "name": "floatBufferViews",
      "target": 34962
    }
  ],
  "buffers": [
    {
      "byteLength": 777264,
      "uri": "scene.bin"
    }
  ],
  "images": [
    {
      "uri": "textures/Material.001_baseColor.png"
    },
    {
      "uri": "textures/Material.002_baseColor.png"
    },
    {
      "uri": "textures/Material.004_baseColor.png"
    }
  ],
  "materials": [
    {
      "doubleSided": true,
      "name": "Material.001",
      "pbrMetallicRoughness": {
        "baseColorTexture": {
          "index": 0
        },
        "metallicFactor": 0.0,
        "roughnessFactor": 0.5
      }
    },
    {
      "doubleSided": true,
      "name": "Material.002",
      "pbrMetallicRoughness": {
        "baseColorTexture": {
          "index": 1
        },
        "metallicFactor": 0.0,
        "roughnessFactor": 0.5
      }
    },
    {
      "doubleSided": true,
      "name": "Material.004",
      "pbrMetallicRoughness": {
        "baseColorTexture": {
          "index": 2
        },
        "metallicFactor": 0.0,
        "roughnessFactor": 0.5
      }
    }
  ],
  "meshes": [
    {
      "name": "Object_0",
      "primitives": [
        {
          "attributes": {
            "NORMAL": 1,
            "POSITION": 0,
            "TEXCOORD_0": 2
          },
          "indices": 3,
          "material": 0,
          "mode": 4
        }
      ]
    },
    {
      "name": "Object_1",
      "primitives": [
        {
          "attributes": {
            "NORMAL": 5,
            "POSITION": 4,
            "TEXCOORD_0": 6
          },
          "indices": 7,
          "material": 1,
          "mode": 4
        }
      ]
    },
    {
      "name": "Object_2",
      "primitives": [
        {
          "attributes": {
            "NORMAL": 9,
            "POSITION": 8,
            "TEXCOORD_0": 10
          },
          "indices": 11,
          "material": 2,
          "mode": 4
        }
      ]
    }
  ],
  "nodes": [
    {
      "children": [
        1
      ],
      "matrix": [
        1.0,
        0.0,
        0.0,
        0.0,
        0.0,
        2.220446049250313e-16,
        -1.0,
        0.0,
        0.0,
        1.0,
        2.220446049250313e-16,
        0.0,
        0.0,
        0.0,
        0.0,
        1.0
      ],
      "name": "Sketchfab_model"
    },
    {
      "children": [
        2
      ],
      "name": "root"
    },
    {
      "children": [
        3,
        6
      ],
      "matrix": [
        1.0,
        0.0,
        0.0,
        0.0,
        0.0,
        2.220446049250313e-16,
        1.0,
        0.0,
        0.0,
        -1.0,
        2.220446049250313e-16,
        0.0,
        0.0,
        0.0,
        0.0,
        1.0
      ],
      "name": "GLTF_SceneRootNode"
    },
    {
      "children": [
        4,
        5
      ],
      "matrix": [
        11.452130317687988,
        0.0,
        0.0,
        0.0,
        0.0,
        -1.930684839579164e-06,
        11.452130317687825,
        0.0,
        0.0,
        -11.452130317687825,
        -1.930684839579164e-06,
        0.0,
        0.0,
        0.0,
        0.0,
        1.0
      ],
      "name": "M_arms:bossk_01_mesh_lod.000_0"
    },
    {
      "mesh": 0,
      "name": "Object_4"
    },
    {
      "mesh": 1,
      "name": "Object_5"
    },
    {
      "children": [
        7
      ],
      "matrix": [
        0.006137782018856972,
        0.0,
        -1.1266547148889245,
        0.0,
        0.0,
        1.126661777496338,
        0.0,
        0.0,
        1.4145531555525634,
        0.0,
        0.0077061932179673,
        0.0,
        -3.778881788253784,
        11.574398040771484,
        5.267956733703613,
        1.0
      ],
      "name": "M_X8NightSniper:x8nightsniper_mesh3p_mesh_lod.000_1"
    },
    {
      "mesh": 2,
      "name": "Object_7"
    }
  ],
  "samplers": [
    {
      "magFilter": 9729,
      "minFilter": 9987,
      "wrapS": 10497,
      "wrapT": 10497
    }
  ],
  "scene": 0,
  "scenes": [
    {
      "name": "Sketchfab_Scene",
      "nodes": [
        0
      ]
    }
  ],
  "textures": [
    {
      "sampler": 0,
      "source": 0
    },
    {
      "sampler": 0,
      "source": 1
    },
    {
      "sampler": 0,
      "source": 2
    }
  ]
}
